<?xml version="1.0" standalone="no"?>
<!DOCTYPE svg PUBLIC "-//W3C//DTD SVG 20010904//EN"
 "http://www.w3.org/TR/2001/REC-SVG-20010904/DTD/svg10.dtd">
<svg version="1.0" xmlns="http://www.w3.org/2000/svg"
 width="720.000000pt" height="720.000000pt" viewBox="0 0 720.000000 720.000000"
 preserveAspectRatio="xMidYMid meet">
<metadata>
Created by potrace 1.11, written by Peter Selinger 2001-2013
</metadata>
<g transform="translate(0.000000,720.000000) scale(0.100000,-0.100000)"
fill="#000000" stroke="none">
<path d="M4132 7163 c-10 -24 -8 -224 4 -408 5 -82 9 -350 9 -595 0 -385 -4
-565 -20 -820 -2 -30 -6 -107 -10 -170 -3 -63 -8 -133 -10 -155 -2 -22 -7 -94
-10 -160 -4 -66 -9 -142 -11 -170 -2 -27 -6 -99 -9 -160 -4 -60 -8 -123 -10
-140 -2 -16 -4 -48 -4 -70 -1 -37 -11 -22 -140 210 -389 704 -855 1475 -960
1590 -20 22 -58 72 -84 111 -117 177 -113 89 5 -98 27 -43 29 -54 24 -105 -3
-32 -5 -67 -5 -78 -1 -13 -12 -2 -34 35 -45 75 -109 162 -114 156 -2 -2 -25
19 -51 46 -25 27 -48 45 -50 40 -5 -15 37 -111 63 -147 20 -27 21 -39 17 -115
-2 -47 -6 -86 -7 -88 -2 -2 -14 4 -28 13 -28 18 -54 74 -87 185 l-23 75 -11
-33 -11 -33 -24 25 c-14 15 -28 26 -32 26 -11 0 10 -59 37 -100 14 -23 21 -47
19 -70 -2 -19 -4 -57 -4 -84 l-1 -50 -29 28 c-15 15 -41 53 -57 84 -24 47 -29
69 -29 129 0 49 -4 74 -12 78 -18 6 -33 -27 -33 -74 0 -34 -3 -41 -20 -41 -24
0 -24 -3 -6 -38 14 -27 18 -164 5 -176 -3 -4 -23 21 -43 54 -36 58 -51 112
-72 255 -9 59 -22 25 -33 -85 -1 -2 -13 13 -28 35 -14 22 -43 59 -64 81 -20
23 -54 68 -75 100 -48 74 -74 104 -91 104 -16 0 2 -41 70 -158 46 -80 48 -85
43 -145 -2 -34 -5 -69 -5 -77 -1 -8 -16 11 -35 42 -44 73 -108 158 -118 158
-5 0 -23 16 -40 35 -17 20 -39 40 -49 46 -15 8 -13 -2 12 -58 17 -37 39 -82
50 -99 10 -18 17 -42 15 -55 -3 -13 -5 -50 -5 -81 -1 -32 -5 -58 -11 -58 -33
0 -84 94 -111 207 -15 63 -25 72 -33 32 l-6 -33 -28 27 c-16 15 -31 27 -35 27
-10 0 14 -62 39 -100 13 -19 21 -44 19 -55 -2 -11 -4 -49 -4 -84 l-1 -65 -29
28 c-50 48 -86 132 -87 207 -1 37 -5 72 -9 79 -14 22 -35 -19 -35 -67 0 -36
-3 -43 -20 -43 -19 0 -19 -2 -6 -34 12 -30 15 -105 7 -216 -2 -22 -40 45 -67
116 -21 57 -43 153 -49 219 -4 48 -5 51 -14 35 -8 -14 -16 -72 -26 -185 -4
-54 -15 -171 -20 -220 -2 -22 -7 -87 -10 -145 -4 -58 -8 -125 -11 -150 -2 -25
-6 -94 -9 -155 -3 -60 -8 -132 -10 -160 -2 -27 -7 -115 -10 -195 -4 -80 -8
-174 -10 -210 -2 -36 -7 -137 -10 -225 -4 -88 -8 -189 -10 -225 -26 -547 -27
-1805 0 -2190 5 -76 15 -232 20 -310 5 -73 14 -190 20 -265 3 -27 7 -86 10
-130 3 -44 7 -102 10 -130 2 -27 7 -86 10 -130 3 -44 8 -107 10 -140 3 -33 7
-100 10 -150 7 -107 14 -207 20 -255 14 -113 24 -271 24 -387 1 -63 5 -93 12
-93 9 0 10 48 5 178 -3 97 -8 193 -10 212 -26 222 -26 681 -1 1235 2 50 7 180
10 290 3 109 8 201 10 204 3 2 5 -20 6 -50 0 -68 5 -167 13 -289 13 -192 16
-236 21 -300 2 -36 7 -99 9 -140 11 -153 17 -247 22 -310 2 -35 7 -107 9 -160
11 -214 19 -323 30 -389 3 -20 7 -49 9 -66 3 -16 8 -52 12 -80 11 -79 12 -93
13 -217 1 -82 5 -118 12 -118 9 0 10 45 5 173 -3 94 -8 188 -10 207 -17 161
-21 258 -20 550 0 184 4 396 8 470 3 74 9 198 12 275 3 77 7 172 8 210 2 39 4
110 5 159 0 49 3 87 5 85 2 -2 7 -67 10 -144 7 -149 11 -218 21 -355 8 -112
12 -165 20 -285 3 -55 8 -122 10 -150 2 -27 7 -93 10 -145 3 -52 8 -131 10
-175 3 -44 7 -118 10 -165 5 -90 14 -189 20 -230 2 -14 7 -49 10 -79 4 -30 9
-63 11 -75 3 -12 7 -84 9 -161 3 -77 5 -149 6 -160 l0 -20 9 20 c8 18 4 307
-4 352 -2 10 -7 68 -11 128 -4 61 -9 130 -11 155 -8 99 -2 519 11 810 9 202
17 442 19 547 2 120 12 146 15 41 2 -40 4 -89 6 -108 2 -19 6 -84 10 -145 3
-60 8 -130 10 -155 5 -68 15 -196 20 -280 5 -72 10 -150 20 -290 7 -95 14
-223 20 -325 6 -129 15 -222 25 -285 5 -30 12 -86 16 -125 4 -38 8 -79 9 -90
2 -11 4 -72 4 -135 1 -78 4 -110 11 -100 9 14 6 277 -4 365 -16 136 -20 246
-20 545 0 184 3 405 7 490 11 230 19 450 21 587 1 128 15 173 17 56 1 -38 2
-79 4 -93 1 -14 5 -75 9 -136 3 -62 8 -138 11 -170 11 -138 16 -214 21 -289 2
-44 6 -102 9 -130 8 -98 16 -219 30 -475 8 -158 18 -261 29 -325 2 -11 7 -56
12 -100 4 -44 9 -83 10 -87 1 -5 2 -63 3 -130 1 -85 4 -118 11 -108 9 14 5
373 -5 460 -18 156 -24 501 -11 685 8 125 12 224 17 412 1 62 5 111 7 108 7
-6 11 -51 27 -305 2 -25 6 -76 9 -115 4 -38 9 -101 11 -140 3 -38 7 -95 10
-125 5 -62 12 -154 20 -280 10 -155 16 -235 21 -270 3 -32 11 -122 19 -240 2
-25 4 -87 4 -137 1 -63 5 -93 12 -93 9 0 10 47 5 178 -4 97 -8 193 -10 212
-27 244 -27 678 -1 1230 3 52 7 173 9 268 2 96 7 176 10 180 3 3 7 -17 7 -44
1 -27 3 -60 4 -74 1 -14 5 -86 9 -160 4 -74 9 -151 11 -170 2 -19 6 -82 9
-140 4 -58 8 -127 11 -155 2 -27 7 -93 11 -145 3 -52 7 -120 9 -150 4 -65 15
-247 20 -340 3 -69 14 -178 20 -211 2 -11 9 -57 16 -102 6 -45 12 -91 14 -102
2 -11 4 -77 4 -147 1 -89 4 -128 12 -128 9 0 10 47 6 178 -4 97 -8 188 -11
202 -2 14 -7 63 -11 110 -4 47 -8 103 -11 125 -4 45 -4 468 1 560 1 33 6 141
10 240 4 99 9 205 10 235 2 30 6 152 10 270 7 219 14 283 16 149 2 -95 5 -149
14 -279 4 -58 9 -130 10 -160 2 -30 6 -90 9 -132 6 -81 12 -163 21 -308 3 -47
8 -112 10 -145 4 -60 10 -158 20 -322 6 -103 16 -221 20 -245 2 -9 7 -48 10
-85 4 -37 9 -72 12 -76 3 -4 6 -74 9 -155 2 -81 4 -151 4 -155 0 -5 4 -6 9 -2
9 5 7 217 -3 345 -10 116 -17 208 -21 275 -6 83 -6 382 0 550 3 66 7 181 10
255 14 407 18 502 19 578 1 101 16 110 17 10 1 -40 2 -84 4 -98 2 -25 14 -202
20 -294 2 -28 6 -82 9 -121 3 -38 8 -106 11 -150 7 -108 15 -218 20 -290 5
-70 13 -211 20 -345 6 -103 10 -155 25 -270 5 -41 12 -95 15 -121 10 -77 14
-140 15 -244 0 -69 3 -95 10 -85 9 13 6 263 -4 370 -17 183 -21 277 -21 550 1
173 4 383 8 465 7 160 16 385 21 578 4 121 15 173 17 76 2 -87 7 -170 34 -536
10 -143 15 -201 20 -278 3 -44 8 -109 10 -145 3 -36 8 -105 10 -155 3 -49 7
-121 10 -160 2 -38 7 -115 10 -170 4 -55 8 -102 10 -105 2 -3 6 -33 10 -67 3
-34 8 -72 11 -85 3 -13 8 -96 11 -186 4 -98 9 -158 14 -150 8 11 3 364 -6 458
-19 194 -24 499 -12 675 18 266 22 463 21 1108 0 383 3 694 6 690 4 -5 56 -93
115 -198 59 -104 128 -223 152 -264 25 -41 53 -88 63 -105 33 -60 126 -203
304 -471 99 -148 219 -331 267 -406 l87 -136 6 -279 c3 -154 8 -297 10 -319
10 -88 18 -127 24 -121 8 8 9 19 17 129 3 51 8 103 10 117 2 14 6 68 10 120
12 171 14 192 18 196 8 8 64 -130 76 -184 6 -29 14 -87 17 -130 3 -42 7 -79 7
-82 1 -3 -2 -34 -7 -70 -8 -71 -2 -100 20 -100 8 0 13 3 12 7 -1 5 2 28 6 53
13 76 15 92 21 180 4 47 8 86 9 88 2 1 17 -26 34 -61 41 -85 83 -208 92 -272
4 -27 19 37 19 84 l1 54 18 -24 c11 -13 43 -66 72 -116 47 -81 70 -109 70 -87
0 8 -73 128 -82 134 -4 3 -18 30 -32 60 -28 62 -38 137 -28 224 l7 60 28 -42
c37 -57 65 -130 73 -194 4 -29 8 -60 9 -68 1 -8 -1 -24 -5 -35 -8 -22 13 -75
23 -58 3 5 11 48 18 96 7 49 16 84 20 80 4 -4 17 -25 28 -45 75 -134 79 -140
94 -135 11 3 13 12 23 107 3 36 8 75 9 88 1 12 5 25 8 28 10 10 87 -154 87
-184 0 -15 6 -37 14 -48 15 -19 15 -19 14 1 -1 28 22 298 26 302 1 1 22 -25
45 -57 24 -33 48 -60 53 -60 10 0 -32 85 -70 142 -23 36 -24 43 -19 131 4 50
7 94 7 97 2 12 41 -70 59 -125 37 -110 51 -248 37 -365 -7 -57 5 -94 23 -75
10 11 18 49 27 145 4 36 8 72 10 80 1 8 3 35 3 60 1 44 1 44 17 21 24 -34 81
-179 100 -255 21 -86 32 -78 33 28 l1 49 18 -24 c11 -13 43 -66 72 -117 47
-80 70 -108 70 -85 0 3 -23 42 -51 86 -88 136 -97 172 -91 336 2 66 15 59 61
-34 37 -76 60 -183 50 -240 -7 -42 6 -84 22 -68 4 4 11 33 15 63 3 30 9 71 13
90 l7 35 53 -92 c56 -99 69 -113 81 -92 8 12 23 132 23 185 0 45 14 34 51 -36
20 -38 41 -72 46 -75 23 -14 7 26 -37 95 -52 82 -56 107 -39 253 l8 69 37 -65
c69 -117 169 -257 184 -257 11 0 -54 120 -120 220 -27 41 -60 98 -74 125 -25
49 -26 52 -15 139 l11 89 97 -126 c104 -134 169 -230 213 -314 23 -45 45 -68
45 -47 0 10 -98 166 -229 363 -97 147 -121 190 -117 210 3 14 8 58 11 96 3 39
8 81 10 95 3 14 7 63 10 110 3 47 8 105 10 130 3 25 7 83 10 130 3 47 7 105
10 130 2 25 7 92 10 150 3 58 8 130 10 160 2 30 7 105 10 165 3 61 8 142 10
180 2 39 7 122 10 185 3 63 8 151 10 195 2 44 7 150 11 235 3 85 8 173 9 195
27 356 20 1848 -10 2430 -12 229 -16 292 -20 353 -3 34 -7 90 -10 125 -12 173
-16 216 -23 257 -3 25 -7 102 -7 172 0 87 -3 124 -10 117 -13 -13 -13 -237 0
-389 16 -180 10 -806 -10 -1110 -2 -30 -6 -113 -10 -185 -3 -71 -8 -173 -11
-225 -9 -141 -11 -194 -19 -435 -4 -121 -9 -222 -11 -224 -2 -2 -4 61 -4 140
0 274 -15 948 -25 1164 -3 55 -7 150 -10 210 -6 137 -15 301 -20 380 -3 33 -7
98 -10 145 -6 97 -12 164 -22 235 -4 28 -7 107 -8 177 0 85 -3 124 -10 117
-13 -13 -13 -244 0 -404 15 -186 9 -823 -10 -1041 -1 -22 -6 -114 -10 -205 -4
-90 -8 -184 -10 -209 -1 -25 -6 -115 -10 -200 -4 -85 -9 -177 -10 -205 -2 -27
-3 -95 -4 -149 0 -55 -3 -97 -6 -95 -2 3 -7 186 -10 407 -3 221 -8 446 -10
500 -2 53 -6 183 -10 287 -3 105 -8 228 -10 275 -3 47 -7 126 -10 175 -7 136
-15 264 -20 320 -2 28 -7 86 -10 130 -4 44 -10 107 -15 140 -4 33 -7 110 -6
172 1 75 -2 109 -9 102 -12 -12 -12 -248 0 -414 19 -247 5 -880 -31 -1455 -8
-119 -11 -196 -19 -425 -4 -110 -9 -202 -11 -204 -2 -2 -4 67 -5 155 -2 282
-15 869 -24 1099 -8 201 -16 385 -20 435 -2 30 -7 109 -10 175 -4 66 -9 136
-11 155 -2 19 -6 69 -10 110 -3 41 -9 104 -14 140 -4 36 -6 107 -4 159 2 73 0
91 -9 82 -13 -13 -15 -284 -3 -446 13 -179 15 -233 16 -415 0 -203 -8 -424
-25 -710 -2 -30 -6 -111 -9 -180 -4 -69 -9 -143 -11 -165 -3 -22 -7 -98 -11
-170 -3 -71 -7 -159 -9 -195 -2 -36 -4 -107 -5 -158 -5 -183 -11 -79 -15 249
-5 376 -13 748 -20 919 -12 305 -23 518 -30 617 -3 40 -8 105 -10 145 -5 85
-12 162 -24 268 -4 41 -7 115 -5 164 2 69 0 86 -9 77 -14 -14 -15 -227 -1
-436 17 -256 10 -1142 -11 -1405 -5 -57 -11 -152 -21 -330 -3 -58 -8 -107 -10
-109 -2 -2 -4 79 -5 180 -1 332 -13 887 -24 1109 -3 41 -7 127 -10 190 -3 63
-7 133 -9 155 -3 22 -7 85 -11 140 -10 134 -12 158 -22 245 -4 41 -8 126 -7
188 1 83 -2 110 -10 102 -14 -14 -14 -210 -1 -380 18 -231 11 -717 -19 -1300
-4 -69 -9 -170 -12 -225 -2 -55 -7 -127 -9 -160 -2 -33 -7 -159 -11 -280 -3
-121 -8 -222 -10 -224 -2 -2 -5 103 -5 235 -1 259 -3 369 -13 714 -7 262 -14
451 -21 570 -2 47 -7 137 -10 200 -3 63 -8 140 -10 170 -3 30 -7 98 -11 150
-7 110 -8 128 -20 230 -5 41 -9 128 -9 192 0 78 -3 114 -10 107 -12 -13 -12
-251 1 -414 11 -142 11 -569 0 -815 -13 -273 -13 -277 -20 -425 -4 -77 -9
-165 -11 -195 -3 -30 -7 -122 -11 -205 -3 -82 -7 -177 -9 -210 -2 -33 -3 -107
-4 -164 -1 -57 -3 -102 -5 -100 -3 2 -7 184 -11 404 -7 468 -16 804 -30 1060
-2 44 -7 139 -10 210 -3 72 -8 150 -10 175 -2 25 -7 81 -10 125 -8 126 -16
206 -23 255 -3 25 -6 104 -7 177 0 88 -3 129 -10 122 -12 -12 -12 -251 0 -414
14 -180 8 -853 -10 -1055 -2 -25 -7 -103 -10 -175 -3 -71 -8 -166 -10 -210 -3
-44 -7 -136 -10 -205 -4 -69 -8 -161 -10 -205 -2 -44 -4 -118 -4 -164 -1 -46
-3 -82 -6 -80 -2 3 -7 180 -10 394 -9 637 -31 1270 -50 1475 -2 19 -6 82 -10
140 -3 58 -8 119 -10 135 -14 100 -20 192 -18 278 2 97 -10 129 -23 61 -6 -35
2 -343 10 -409 5 -35 18 -308 19 -380 0 -71 -13 -507 -18 -585 -2 -36 -7 -110
-10 -165 -11 -201 -16 -291 -20 -340 -2 -27 -7 -113 -11 -190 -3 -77 -8 -160
-9 -185 -2 -25 -4 -76 -4 -114 -1 -38 -4 -67 -7 -63 -4 3 -8 140 -9 304 -4
311 -12 693 -20 898 -14 343 -22 510 -30 605 -2 30 -7 102 -10 160 -4 58 -8
115 -10 127 -12 73 -19 192 -19 281 1 56 0 102 -3 102 -2 0 -7 -8 -11 -17z
m-1918 -1323 c-4 -36 -7 -66 -9 -68 -1 -2 -14 17 -29 42 -20 34 -27 63 -32
127 l-6 84 41 -60 c39 -58 40 -61 35 -125z m823 25 c121 -199 232 -412 393
-750 29 -60 84 -173 122 -250 39 -77 66 -135 60 -130 -9 10 -153 252 -332 560
-51 88 -142 242 -201 341 l-108 182 -7 83 c-4 54 -3 80 3 74 5 -5 37 -55 70
-110z m-986 -30 c20 -45 31 -126 19 -145 -10 -17 -67 61 -80 109 -5 20 -11 68
-15 106 l-5 70 32 -50 c17 -27 39 -68 49 -90z m770 53 c59 -100 84 -182 71
-230 -4 -18 -5 -18 -28 3 -33 31 -61 111 -68 199 -7 79 -5 81 25 28z m-951
-61 c24 -44 30 -67 30 -114 0 -33 -3 -63 -7 -67 -11 -11 -71 161 -77 222 -7
64 -2 61 54 -41z m-180 -29 c42 -74 44 -83 30 -203 -1 -15 -30 25 -52 75 -14
30 -22 71 -23 123 -2 42 -1 77 0 77 2 0 22 -32 45 -72z m993 3 c30 -55 37 -79
37 -122 0 -89 -13 -86 -48 14 -31 90 -48 177 -34 177 4 0 24 -31 45 -69z
m-164 -59 c27 -47 30 -59 27 -118 -2 -36 -6 -67 -9 -70 -2 -2 -19 23 -37 57
-28 52 -33 75 -37 143 -4 90 -5 91 56 -12z m-994 14 c29 -51 36 -95 25 -160
-5 -28 -12 -78 -15 -111 -3 -33 -8 -78 -10 -100 -12 -108 -32 -437 -34 -552 0
-40 -5 -73 -9 -73 -4 0 -8 238 -8 529 1 570 -1 555 51 467z m842 -113 c7 -18
11 -44 8 -58 -18 -87 -13 -84 -45 -30 -22 40 -29 67 -34 135 l-5 85 31 -50
c17 -27 37 -65 45 -82z m-177 -87 c-1 -16 -5 -12 -15 13 -19 42 -19 52 0 27 8
-11 15 -29 15 -40z m-144 -112 c-6 -49 -10 -50 -35 -11 -16 26 -21 50 -21 98
l1 64 30 -57 c21 -43 28 -67 25 -94z m1071 -90 c106 -185 390 -761 380 -771
-4 -4 -100 162 -247 427 -114 206 -270 532 -270 563 0 14 38 -47 137 -219z
m-1247 65 c0 -25 -3 -49 -6 -52 -15 -15 -41 61 -42 123 l-1 65 24 -45 c15 -28
24 -62 25 -91z m994 -14 c-3 -22 -7 -41 -9 -43 -1 -2 -12 12 -23 30 -20 33
-25 63 -23 128 l2 35 29 -55 c23 -44 28 -63 24 -95z m-1169 -48 c-3 -34 -7
-102 -10 -152 -12 -215 -15 -275 -20 -350 -3 -44 -7 -136 -11 -205 -3 -69 -7
-127 -10 -129 -2 -2 -2 126 1 285 2 159 5 386 5 504 l1 215 24 -53 c20 -44 24
-64 20 -115z m994 28 c1 -107 -39 -53 -45 60 l-4 70 25 -45 c14 -26 24 -62 24
-85z m-191 1 c13 -27 18 -57 15 -82 -5 -50 -8 -52 -27 -15 -14 27 -23 141 -11
141 2 0 13 -20 23 -44z m-173 -36 c8 -16 15 -51 14 -77 l-1 -48 -22 47 c-14
29 -21 58 -18 78 2 16 6 30 8 30 2 0 10 -13 19 -30z m-158 -122 c-3 -8 -6 -5
-6 6 -1 11 2 17 5 13 3 -3 4 -12 1 -19z m874 -143 c51 -104 130 -254 205 -389
24 -43 43 -80 41 -82 -3 -4 -166 266 -221 367 -36 66 -87 197 -85 221 0 8 3 8
6 -2 4 -8 28 -60 54 -115z m-1027 50 c5 -22 4 -27 -3 -19 -15 14 -31 71 -23
79 7 6 15 -12 26 -60z m-170 -110 c-9 -140 -12 -190 -13 -269 -1 -38 -4 -67
-7 -63 -3 3 -5 66 -4 139 1 73 2 180 2 238 0 94 1 102 14 80 11 -19 13 -48 8
-125z m984 96 c15 -48 15 -58 1 -44 -13 13 -30 83 -20 83 5 0 13 -17 19 -39z
m-334 -131 c-1 -14 -3 -29 -3 -35 -1 -5 -6 -3 -11 5 -5 8 -10 38 -9 65 0 50 0
50 13 20 7 -16 12 -41 10 -55z m172 28 l3 -33 -14 25 c-8 14 -14 34 -15 45 0
32 22 1 26 -37z m-351 -93 c5 -25 4 -27 -5 -12 -14 22 -23 64 -10 51 5 -5 11
-22 15 -39z m-319 -132 c-3 -21 -5 -89 -5 -150 -1 -73 -5 -113 -12 -113 -5 0
-8 3 -5 8 2 4 6 72 7 150 2 78 7 142 11 142 5 0 7 -17 4 -37z m1030 -48 c18
-41 31 -75 28 -75 -6 0 -44 78 -60 123 -22 62 -5 36 32 -48z m-1541 -30 c-3
-51 -15 -56 -15 -7 0 23 4 42 9 42 5 0 8 -16 6 -35z m2149 -11 c3 -8 2 -12 -4
-9 -6 3 -10 10 -10 16 0 14 7 11 14 -7z m-987 -26 c-3 -8 -6 -5 -6 6 -1 11 2
17 5 13 3 -3 4 -12 1 -19z m1600 -7 c0 -11 -5 -18 -9 -15 -4 3 -5 11 -1 19 7
21 12 19 10 -4z m-2762 -21 c3 -5 1 -10 -4 -10 -6 0 -11 5 -11 10 0 6 2 10 4
10 3 0 8 -4 11 -10z m343 -15 c-3 -3 -9 2 -12 12 -6 14 -5 15 5 6 7 -7 10 -15
7 -18z m-351 -67 c-2 -13 -4 -3 -4 22 0 25 2 35 4 23 2 -13 2 -33 0 -45z
m2770 27 c0 -8 -4 -12 -9 -9 -5 3 -6 10 -3 15 9 13 12 11 12 -6z m820 -24 c0
-11 -5 -18 -9 -15 -4 3 -5 11 -1 19 7 21 12 19 10 -4z m-3250 -53 c-3 -7 -5
-2 -5 12 0 14 2 19 5 13 2 -7 2 -19 0 -25z m-340 -15 c-3 -10 -5 -4 -5 12 0
17 2 24 5 18 2 -7 2 -21 0 -30z m2210 -1365 c15 -24 71 -117 125 -208 54 -91
103 -172 108 -180 47 -76 71 -125 68 -142 -2 -14 -13 -1 -36 44 -18 35 -37 70
-42 78 -10 16 -156 269 -221 383 -42 75 -44 90 -2 25z m-39 -253 c334 -523
333 -522 331 -581 -1 -30 -5 -57 -9 -59 -3 -2 -50 83 -103 188 -143 282 -245
476 -295 557 -9 14 -11 21 -5 15 6 -5 43 -59 81 -120z m-183 -35 c51 -83 106
-168 359 -564 l147 -229 -5 -75 c-3 -41 -7 -76 -9 -78 -2 -2 -21 29 -42 69
-21 39 -66 124 -100 187 -34 63 -85 158 -112 210 -28 52 -67 127 -88 165 -226
423 -260 494 -150 315z m-87 -175 c93 -148 214 -340 269 -425 54 -85 147 -232
206 -327 l108 -171 -3 -102 -3 -102 -61 109 c-62 108 -90 159 -179 328 -26 50
-60 113 -75 140 -15 28 -39 70 -52 95 -14 25 -38 70 -55 100 -17 30 -53 98
-80 150 -28 52 -66 124 -85 160 -68 127 -171 325 -165 320 3 -3 81 -126 175
-275z m2109 -147 c-3 -8 -6 -5 -6 6 -1 11 2 17 5 13 3 -3 4 -12 1 -19z m-817
-28 c0 -5 -5 -10 -11 -10 -5 0 -7 5 -4 10 3 6 8 10 11 10 2 0 4 -4 4 -10z
m817 -12 c-3 -8 -6 -5 -6 6 -1 11 2 17 5 13 3 -3 4 -12 1 -19z m-820 -23 c0
-8 -4 -12 -9 -9 -5 3 -6 10 -3 15 9 13 12 11 12 -6z m820 -17 c2 -17 0 -19 -7
-8 -5 8 -6 18 -4 22 8 12 10 10 11 -14z m-994 -18 c-7 -27 -13 -25 -11 4 1 14
5 23 9 20 4 -2 5 -13 2 -24z m991 -47 c-1 -21 -5 -114 -9 -208 -10 -227 -13
-335 -14 -425 l-1 -75 -20 25 c-15 19 -18 36 -14 75 2 28 6 82 9 120 3 39 7
88 9 110 3 22 8 85 12 140 4 55 8 114 9 130 2 17 3 56 4 88 1 31 4 57 9 57 4
0 7 -17 6 -37z m-337 5 c-3 -8 -6 -5 -6 6 -1 11 2 17 5 13 3 -3 4 -12 1 -19z
m159 -125 c-3 -82 -5 -179 -6 -216 0 -47 -3 -66 -11 -61 -10 6 -6 172 6 274 2
14 4 53 4 88 1 34 4 62 7 62 3 0 3 -66 0 -147z m-1165 30 c-9 -15 -10 -14 -7
7 3 14 6 36 7 50 2 20 3 19 6 -7 2 -18 0 -41 -6 -50z m829 25 c0 -29 -4 -48
-8 -41 -7 12 -4 93 4 93 2 0 4 -24 4 -52z m177 -23 c0 -8 -4 -15 -9 -15 -4 0
-8 7 -8 15 0 8 4 15 8 15 5 0 9 -7 9 -15z m-3337 -25 c0 -5 -2 -10 -4 -10 -3
0 -8 5 -11 10 -3 6 -1 10 4 10 6 0 11 -4 11 -10z m987 -32 c-3 -8 -6 -5 -6 6
-1 11 2 17 5 13 3 -3 4 -12 1 -19z m2168 12 c3 -5 1 -10 -4 -10 -6 0 -11 5
-11 10 0 6 2 10 4 10 3 0 8 -4 11 -10z m-2338 -25 c0 -8 -4 -12 -9 -9 -5 3 -6
10 -3 15 9 13 12 11 12 -6z m2027 -35 c-1 -8 -3 -33 -4 -55 0 -31 -3 -36 -10
-23 -9 15 -9 33 0 118 1 10 4 9 9 -5 5 -11 7 -27 5 -35z m-2367 3 c-3 -10 -5
-4 -5 12 0 17 2 24 5 18 2 -7 2 -21 0 -30z m2193 -65 c0 -46 -4 -67 -9 -58 -7
13 -8 44 -2 118 1 6 3 12 6 12 3 0 5 -33 5 -72z m-174 -76 c-4 -36 -8 -68 -11
-70 -7 -8 -16 43 -11 68 2 14 5 38 5 53 1 18 5 26 12 21 8 -4 9 -28 5 -72z
m-167 -23 c-1 -43 -5 -79 -10 -79 -12 0 -19 38 -14 75 1 17 3 45 4 63 1 20 5
31 11 27 6 -4 10 -40 9 -86z m988 4 c-4 -49 -7 -90 -7 -93 0 -3 -5 2 -10 10
-6 9 -7 42 -4 80 4 36 7 71 7 78 0 6 5 12 10 12 6 0 7 -34 4 -87z m-169 -44
c-2 -76 -11 -99 -22 -61 -3 9 -4 31 -1 47 2 17 4 47 4 68 1 24 5 36 12 32 6
-4 9 -38 7 -86z m-318 -74 c1 -16 2 -59 1 -95 -1 -63 -1 -64 -17 -41 -18 24
-19 102 -5 181 3 15 20 -20 21 -45z m-173 -137 l4 -103 -20 25 c-18 22 -20 34
-14 95 3 39 6 79 5 89 -1 13 2 16 10 8 6 -6 12 -57 15 -114z m-167 12 c1 -19
1 -64 1 -100 l-2 -65 -20 39 c-20 37 -22 93 -9 211 3 21 28 -52 30 -85z m986
-39 c4 -111 -4 -138 -25 -81 -10 30 -7 115 8 199 1 2 4 2 7 -1 3 -3 7 -56 10
-117z m-1160 -56 l5 -100 -26 30 c-24 27 -26 35 -20 90 3 33 9 76 12 95 6 33
6 34 15 10 5 -14 12 -70 14 -125z m991 70 c4 -27 6 -77 3 -110 l-5 -60 -18 33
c-15 27 -17 48 -13 110 3 42 5 84 6 92 1 28 18 -11 27 -65z m-171 -110 l5
-100 -26 30 c-28 32 -28 35 -8 175 5 41 7 42 15 20 5 -14 12 -70 14 -125z
m-166 -42 c-1 -96 -2 -105 -14 -84 -8 14 -12 30 -10 36 5 11 11 78 13 128 1
15 3 27 6 27 3 0 5 -48 5 -107z m-148 -98 c-2 -60 -5 -111 -6 -113 -8 -7 -57
91 -52 103 3 8 8 40 12 71 3 32 8 65 9 73 2 9 4 18 4 21 1 2 9 -7 18 -20 14
-20 17 -44 15 -135z m820 -33 c-2 -64 -5 -118 -7 -120 -7 -8 -55 91 -51 106 3
9 8 40 11 67 3 28 8 65 11 84 l6 34 17 -27 c15 -23 17 -44 13 -144z m-994 29
c9 -88 1 -170 -14 -150 -30 37 -44 80 -39 116 8 48 12 89 15 133 l2 35 15 -34
c8 -19 18 -64 21 -100z m816 -12 c12 -100 10 -193 -4 -184 -24 15 -51 86 -45
118 3 18 8 55 10 82 2 28 4 59 5 70 3 31 28 -33 34 -86z m-1003 54 c6 -21 13
-87 16 -148 l4 -110 -31 50 c-30 49 -31 52 -24 135 3 47 7 91 7 98 1 25 16 11
28 -25z m-159 -68 c12 -45 17 -246 6 -239 -5 3 -8 9 -8 14 0 5 -14 31 -30 57
-28 43 -30 54 -25 103 3 30 7 64 10 75 2 11 4 31 5 45 1 24 1 24 16 5 8 -11
19 -38 26 -60z m984 7 c4 -15 9 -74 11 -132 l4 -105 -32 54 c-30 52 -31 58
-25 125 4 39 8 80 11 91 2 11 4 25 5 30 2 12 17 -26 26 -63z m-182 1 c7 -16
17 -44 21 -63 9 -42 15 -172 8 -183 -3 -5 -20 14 -38 41 -31 45 -33 54 -27
103 3 30 6 71 6 91 1 45 10 48 30 11z m-144 -159 c1 -43 1 -92 0 -109 -1 -30
-1 -29 -24 15 -13 24 -22 56 -20 70 2 14 6 36 8 50 3 14 5 41 5 60 1 33 2 33
15 14 9 -13 15 -49 16 -100z m-176 -20 c28 -121 43 -214 33 -214 -14 0 -87
115 -83 129 6 21 15 87 18 133 3 51 12 37 32 -48z m-159 -39 c20 -59 30 -133
27 -194 l-3 -53 -45 68 c-33 51 -43 74 -39 94 4 20 11 100 15 180 1 16 24 -32
45 -95z m963 73 c1 -15 5 -35 21 -93 19 -73 35 -195 25 -195 -1 0 -21 26 -44
57 -24 34 -38 63 -35 73 4 8 9 44 11 80 5 65 10 90 17 90 2 0 4 -6 5 -12z
m-1110 -257 c3 -69 1 -102 -5 -98 -6 4 -27 34 -47 68 -39 65 -38 61 -21 214 2
17 4 39 5 50 0 11 15 -14 32 -55 25 -61 31 -94 36 -179z m954 183 c28 -80 44
-168 40 -233 l-3 -53 -44 67 c-43 65 -44 69 -38 124 3 31 7 63 9 71 1 8 3 33
3 54 1 49 6 44 33 -30z m-166 -50 c30 -78 49 -284 25 -270 -7 5 -10 10 -7 14
3 3 -12 37 -33 76 -25 46 -37 80 -34 96 3 23 10 99 12 144 1 28 7 18 37 -60z
m-300 -239 l4 -140 -40 70 c-43 76 -42 64 -25 240 2 22 4 45 5 50 0 6 12 -10
26 -35 23 -40 26 -57 30 -185z m-162 80 c36 -72 44 -128 33 -213 l-10 -72 -33
55 c-50 83 -75 141 -70 167 3 13 5 54 5 92 l1 69 24 -22 c14 -13 36 -47 50
-76z m822 -45 c12 -25 25 -56 30 -70 9 -29 7 -130 -4 -178 l-7 -34 -50 89
c-37 67 -49 98 -48 128 0 22 1 69 2 105 l1 65 28 -30 c15 -16 37 -50 48 -75z"/>
</g>
</svg>
